<?xml version="1.0" encoding="utf-8"?>
<!-- Generator: Adobe Illustrator 22.0.1, SVG Export Plug-In . SVG Version: 6.00 Build 0)  -->
<svg version="1.1" id="Layer_1" xmlns="http://www.w3.org/2000/svg" xmlns:xlink="http://www.w3.org/1999/xlink" x="0px" y="0px"
	 viewBox="0 0 68 44" style="enable-background:new 0 0 68 44;" xml:space="preserve">
<style type="text/css">
	.st0{fill:#FDBC18;}
	.st1{filter:url(#Adobe_OpacityMaskFilter);}
	.st2{fill:#FFFFFF;}
	.st3{mask:url(#mask-2_1_);fill:#FDBC18;}
</style>
<title>Group 6</title>
<desc>Created with Sketch.</desc>
<g id="Page-1">
	<g id="Choose-Vehicle-type" transform="translate(-155.000000, -640.000000)">
		<g id="Intro" transform="translate(0.000000, 462.000000)">
			<g id="Group-6" transform="translate(155.000000, 178.000000)">
				<path id="Fill-1" class="st0" d="M11.4,22.8c0-0.4,0.4-0.8,0.8-0.8h2.7v-2.6c0-0.4,0.4-0.8,0.8-0.8h2.1c0.4,0,0.8,0.4,0.8,0.8
					V22h2.7c0.4,0,0.8,0.4,0.8,0.8v2.1c0,0.4-0.4,0.8-0.8,0.8h-2.7v2.6c0,0.4-0.4,0.8-0.8,0.8h-2.1c-0.4,0-0.8-0.4-0.8-0.8v-2.6
					h-2.7c-0.4,0-0.8-0.4-0.8-0.8V22.8z M47.7,22.8c0-0.5,0.4-0.8,0.8-0.8h8.2c0.5,0,0.8,0.4,0.8,0.8v2c0,0.5-0.4,0.8-0.8,0.8h-8.2
					c-0.5,0-0.8-0.4-0.8-0.8V22.8z M4,42.3c0,1,0.8,1.7,1.8,1.7h57.5c1,0,1.8-0.8,1.8-1.7V13H4V42.3z"/>
				<g id="Group-5">
					<g id="Clip-4">
					</g>
					<defs>
						<filter id="Adobe_OpacityMaskFilter" filterUnits="userSpaceOnUse" x="0" y="0.2" width="67.8" height="10.7">
							<feColorMatrix  type="matrix" values="1 0 0 0 0  0 1 0 0 0  0 0 1 0 0  0 0 0 1 0"/>
						</filter>
					</defs>
					<mask maskUnits="userSpaceOnUse" x="0" y="0.2" width="67.8" height="10.7" id="mask-2_1_">
						<g class="st1">
							<polygon id="path-1_1_" class="st2" points="0,0.2 67.8,0.2 67.8,10.9 0,10.9 							"/>
						</g>
					</mask>
					<path id="Fill-3" class="st3" d="M66.2,10.9c0.9,0,1.6-0.7,1.6-1.6V6.5c0-0.9-0.7-1.6-1.6-1.6H57V1.8c0-0.9-0.7-1.6-1.6-1.6
						h-7.1c-0.9,0-1.6,0.7-1.6,1.6v3.1H21.8V1.8c0-0.9-0.7-1.6-1.6-1.6h-7.1c-0.9,0-1.6,0.7-1.6,1.6v3.1H1.6C0.7,4.9,0,5.6,0,6.5
						v2.7c0,0.9,0.7,1.6,1.6,1.6h2h60.5H66.2z"/>
				</g>
			</g>
		</g>
	</g>
</g>
</svg>
