<?xml version="1.0" encoding="utf-8"?>
<!-- Generator: Adobe Illustrator 23.0.3, SVG Export Plug-In . SVG Version: 6.00 Build 0)  -->
<svg version="1.1" id="Layer_1" xmlns="http://www.w3.org/2000/svg" xmlns:xlink="http://www.w3.org/1999/xlink" x="0px" y="0px"
	 viewBox="0 0 53 53" style="enable-background:new 0 0 53 53;" xml:space="preserve">
<style type="text/css">
	.st0{fill:#6561AB;}
</style>
<title>Group 8</title>
<desc>Created with Sketch.</desc>
<g id="Page-1">
	<g id="Choose-Vehicle-type" transform="translate(-285.000000, -636.000000)">
		<g id="Intro" transform="translate(0.000000, 462.000000)">
			<g id="Group-8" transform="translate(285.000000, 174.000000)">
				<path id="Fill-1" class="st0" d="M16.3,14.1c0-5.5,4.4-9.9,9.8-9.9s9.8,4.5,9.8,9.9c0,5.3-4.1,9.7-9.3,9.9c-0.2,0-0.3,0-0.5,0
					s-0.3,0-0.5,0C20.5,23.7,16.3,19.4,16.3,14.1 M13.4,48.9H6.2c-0.9,0-1.4-0.5-1.6-0.8c-0.4-0.5-0.6-1.2-0.4-1.8
					C6.3,36,15.3,28.4,25.7,28.2c0.2,0,0.3,0,0.5,0s0.4,0,0.5,0c2.5,0.1,5,0.5,7.4,1.4c1.1,0.4,2.2-0.1,2.6-1.2
					c0.4-1.1-0.1-2.3-1.2-2.7c-0.3-0.1-0.7-0.2-1-0.4c3.4-2.6,5.6-6.7,5.6-11.3C40,6.3,33.8,0,26.1,0S12.2,6.3,12.2,14.1
					c0,4.6,2.2,8.7,5.6,11.3c-3.1,1-6,2.6-8.6,4.8C4.6,34,1.4,39.4,0.1,45.4c-0.4,1.9,0.1,3.8,1.3,5.3S4.3,53,6.2,53h7.2
					c1.1,0,2-0.9,2-2.1C15.5,49.8,14.5,48.9,13.4,48.9"/>
				<g id="Group-5" transform="translate(15.000000, 32.000000)">
					<g id="Clip-4">
					</g>
					<path id="Fill-3" class="st0" d="M36.3,3.4c-0.9-2-2.9-3.3-5.1-3.3h-6.4l0,0c-2.3,0-4.4,1.4-5.2,3.6c-0.1,0.3-0.2,0.6-0.4,1.1
						H5.7C5.1,4.8,4.6,5,4.2,5.4L0.6,9.1c-0.8,0.8-0.8,2.1,0,2.9l3.6,3.7c0.4,0.4,0.9,0.6,1.5,0.6h6.7c1.1,0,2.1-0.9,2.1-2.1
						s-0.9-2.1-2.1-2.1H6.6L5,10.5l1.5-1.6h14.2c1,0,1.8-0.7,2-1.6c0.2-0.7,0.4-1.4,0.7-2.2c0.2-0.5,0.7-0.9,1.3-0.9l0,0h6.4
						c0.6,0,1.1,0.3,1.3,0.8c0.6,1.3,1.2,3.2,1.2,5.4s-0.7,4.2-1.2,5.5c-0.2,0.5-0.7,0.9-1.3,0.9l0,0h-6.5c-0.6,0-1.1-0.4-1.3-0.9
						c-0.2-0.6-0.5-1.3-0.6-2.1c-0.3-1.1-1.4-1.8-2.5-1.6c-1.1,0.3-1.8,1.4-1.5,2.5c0.2,1,0.5,1.9,0.8,2.7c0.9,2.1,2.9,3.5,5.1,3.5
						h6.5l0,0c2.2,0,4.2-1.3,5.1-3.4c0.7-1.7,1.6-4.3,1.6-7.1C37.9,7.6,37,5,36.3,3.4"/>
				</g>
				<path id="Fill-6" class="st0" d="M45,40c1.1,0,2,0.9,2,2s-0.9,2-2,2s-2-0.9-2-2S43.9,40,45,40"/>
			</g>
		</g>
	</g>
</g>
</svg>
