<?xml version="1.0" encoding="utf-8"?>
<!-- Generator: Adobe Illustrator 22.0.1, SVG Export Plug-In . SVG Version: 6.00 Build 0)  -->
<svg version="1.1" id="Layer_1" xmlns="http://www.w3.org/2000/svg" xmlns:xlink="http://www.w3.org/1999/xlink" x="0px" y="0px"
	 viewBox="0 0 100 100" style="enable-background:new 0 0 100 100;" xml:space="preserve">
<style type="text/css">
	.st0{fill:#FFFFFF;}
</style>
<g>
	<g>
		<path class="st0" d="M95.3,46.1c0.6-0.9,0.8-2,0.6-3.2L95,38.3c-0.3-1.6-1.6-3.6-3.2-4.5c0,0-0.1,0-0.1-0.1l-1.5-1
			c1-0.4,2-1.5,1.8-2.5c-0.2-1.1-1.7-1.2-3-0.9c-1.3,0.2-1.3,1.2-1.2,1.8l-3.9-2.6c-0.8-0.5-2.2-0.8-3.1-0.6l-6.4,1.2l0,0L68,30.5
			c-0.9,0.2-2.1,0.9-2.7,1.7L62.6,36c-0.1-0.6-0.5-1.5-1.8-1.3s-2.7,0.9-2.5,2c0.2,0.9,1.5,1.6,2.6,1.6l-1,1.4l-5.3-5.1
			c-1.2-1.2-3.6-2.2-5.3-2.2H37.5l0,0H25.7c-1.7,0-4.1,1-5.3,2.2l-6.1,5.8c0-1.2-0.3-2.8-2.7-2.8c-2.3,0-5,0.7-5,2.6
			c0,1.7,2.1,3.3,4,3.7l-2.3,2.3c-0.1,0.1-0.1,0.1-0.1,0.2c-2.5,2.1-4.2,6.1-4.2,9V64c0,2.1,0.8,4,2.2,5.4v3.3
			c0,1.9,1.6,3.5,3.6,3.5h4.4c2,0,3.6-1.6,3.6-3.5v-0.9h19.7l0,0h19.7v0.9c0,2,1.6,3.5,3.6,3.5h4.4c2,0,3.6-1.6,3.6-3.5v-3.3
			C70.1,68,71,66.1,71,64v-8.6c0-1-0.2-2.1-0.5-3.2l8-1.5l0,0l10.7-2l0.1,0.5c0.2,1.1,1.3,1.8,2.3,1.5l2.4-0.5
			c1.1-0.2,1.8-1.2,1.6-2.3L95.3,46.1z M63.8,37.6l3-4.2c0.4-0.5,1.1-0.9,1.5-1l6.4-1.2l0,0l6.4-1.2c0.4-0.1,1.3,0.1,1.8,0.4
			l5.1,3.4L75.7,36l0,0l-9.8,1.9l-2.6,0.5L63.8,37.6z M65.7,45.2L64.4,44c0.6-0.1,1.2-0.4,1.7-0.7c0.4,0.3,0.7,0.6,0.7,0.8
			C67,44.6,66.4,45,65.7,45.2z M22.6,37.2c0.9-0.7,2.3-1.2,3.1-1.2h11.8l0,0h11.8c0.7,0,2.2,0.5,3.1,1.2l6.1,5.9l1.4,1.4l0.4,0.4H60
			h-1.6h-21l0,0H14.7L22.6,37.2z M6.7,54.1c0-2.1,1.7-3.8,3.7-3.8s8.7,3.9,8.7,6s-6.7,1.6-8.7,1.6C8.4,58,6.7,56.3,6.7,54.1z
			 M17.8,68.1h-0.7h-0.7h-4.2c-1.2-0.4-2-0.8-2.6-1.2c-0.3-0.2-0.5-0.5-0.7-0.7s-0.3-0.5-0.4-0.7C8,64,9.1,62.7,9.1,62.7h7.1
			l4.8,5.5L17.8,68.1z M47.8,68.1H37.5l0,0H27.3c-2.1,0-3.9-1.7-3.9-3.9h14.1l0,0h14.1C51.7,66.4,49.9,68.1,47.8,68.1z M48.7,61.6
			H37.5l0,0H26.4c-2.3,0-4.2-2.9-4.2-6.4h15.4l0,0H53C52.9,58.8,51,61.6,48.7,61.6z M66.5,65.5c-0.1,0.2-0.2,0.5-0.4,0.7
			c-0.2,0.2-0.4,0.5-0.7,0.7c-0.6,0.5-1.4,0.9-2.6,1.2h-4.2h-0.7h-0.7H54l4.8-5.5h7.1C65.9,62.7,67,64,66.5,65.5z M66.6,50.8
			L66.6,50.8c0.6,0.4,1.1,1.1,1.5,1.8c0.2,0.4,0.3,0.9,0.3,1.5c0,2.1-1.7,3.8-3.7,3.8S56,58.4,56,56.3c0-1.2,2.2-3.1,4.5-4.4
			c0.8-0.5,1.6-0.8,2.3-1.1C65.2,50.3,66.5,50.9,66.6,50.8 M68.4,43.2l8.4-1.6l0,0l8.4-1.6c0.4,1.9-0.4,3.7-1.6,3.9l-6.1,1.2l0,0
			l-6.1,1.2C70.1,46.5,68.8,45.1,68.4,43.2z M83.7,47.6l-5.6,1.1l0,0l-5.6,1.1c-1.2,0.2-2.3-0.5-2.5-1.7l7.7-1.5l0,0l7.7-1.5
			C85.6,46.3,84.8,47.4,83.7,47.6z M86.9,40.4c-0.2-1.1,3-4,4.1-4.2s2.2,0.6,2.4,1.7c0.2,1.1-0.5,2.3-1.6,2.5
			C90.7,40.6,87.1,41.5,86.9,40.4z M93.6,44.2c0,0.1-0.1,0.3-0.1,0.4c-0.1,0.1-0.2,0.3-0.3,0.5c-0.3,0.3-0.7,0.6-1.3,0.9l-2.3,0.4
			l-0.4,0.1l-0.4,0.1L87.1,47l2-3.5l3.9-0.7C93,42.8,93.7,43.4,93.6,44.2z"/>
		<path class="st0" d="M60,44.5c0,0.1,0.1,0.3,0.2,0.4h0.3L60,44.5z"/>
		<path class="st0" d="M64.3,51.3"/>
	</g>
	<polygon class="st0" points="64.1,23.9 67.2,25 62.1,33.5 61.7,33.4 	"/>
	<polygon class="st0" points="55.7,21.8 58.9,21.1 59.1,31 58.7,31.1 	"/>
	<polygon class="st0" points="49.1,28.6 51.1,26.1 57.4,33.7 57.1,34.1 	"/>
</g>
</svg>
