<?xml version="1.0" encoding="utf-8"?>
<!-- Generator: Adobe Illustrator 22.0.1, SVG Export Plug-In . SVG Version: 6.00 Build 0)  -->
<svg version="1.1" id="Layer_1" xmlns="http://www.w3.org/2000/svg" xmlns:xlink="http://www.w3.org/1999/xlink" x="0px" y="0px"
	 viewBox="0 0 100 100" style="enable-background:new 0 0 100 100;" xml:space="preserve">
<style type="text/css">
	.st0{fill:#FFFFFF;}
</style>
<path class="st0" d="M68.6,18.3H44l-4.6,4.6l-4.6-4.6c-0.9-0.9-2.2-0.9-3.1,0L30.4,17c-1.1-1.1-2.8-1.1-3.9,0l-2.6,2.6
	c-1.1,1.1-1.1,2.8,0,3.9l1.2,1.2L25,24.9c-0.9,0.9-0.9,2.3,0,3.1l4.6,4.6l-5,4.9v41.2c0,2.4,1.9,4.4,4.2,4.4h44c2.3,0,4.2-2,4.2-4.4
	V27C77,22.3,73.2,18.3,68.6,18.3z M68.1,73.9l-1.8,1.8L50.8,60.1L35.2,75.7l-1.8-1.8L49,58.3L33.4,42.8l1.8-1.8l15.6,15.6L66.4,41
	l1.8,1.8L52.6,58.3L68.1,73.9z M70.1,27.4L70.1,27.4c0,2.2-2,4.1-4.5,4.1H51c-2.5,0-4.5-1.8-4.5-4.1l0,0l0,0l0,0
	c0-2.2,2-4.1,4.5-4.1h14.7C68.1,23.3,70.1,25.1,70.1,27.4L70.1,27.4L70.1,27.4z"/>
<g>
	<g>
		<path d="M-251.1,650c0,5.3,4.3,9.5,9.5,9.5H67.6c5.3,0,9.5-4.3,9.5-9.5V489.8h-328.3L-251.1,650L-251.1,650z M-16.1,543.7
			c0-2.5,2-4.6,4.6-4.6h44c2.5,0,4.6,2,4.6,4.6v10.8c0,2.5-2,4.6-4.6,4.6h-44c-2.5,0-4.6-2-4.6-4.6V543.7z M-211.1,543.4
			c0-2.4,1.9-4.3,4.3-4.3h14.4v-14.4c0-2.4,1.9-4.3,4.3-4.3h11.3c2.4,0,4.3,1.9,4.3,4.3v14.4h14.4c2.4,0,4.3,1.9,4.3,4.3v11.3
			c0,2.4-1.9,4.3-4.3,4.3h-14.4v14.4c0,2.4-1.9,4.3-4.3,4.3H-188c-2.4,0-4.3-1.9-4.3-4.3V559h-14.4c-2.4,0-4.3-1.9-4.3-4.3v-11.3
			H-211.1z"/>
		<path d="M88.1,480c4.9,0,8.9-4,8.9-8.9v-15c0-4.9-4-8.9-8.9-8.9H38.4v-16.7c0-4.9-4-8.9-8.9-8.9H-8.9c-4.9,0-8.9,4-8.9,8.9v16.7
			h-134.9v-16.7c0-4.9-4-8.9-8.9-8.9H-200c-4.9,0-8.9,4-8.9,8.9v16.7h-53.2c-4.9,0-8.9,4-8.9,8.9v15c0,4.9,4,8.9,8.9,8.9h11H77.1
			H88.1L88.1,480z"/>
	</g>
</g>
<g>
	<g>
		<g>
			<path d="M411.8,636.3h-40.4c-4.9,0-7.8-2.7-9.1-4.3c-2.3-2.8-3.2-6.4-2.4-10c11.8-57,62.1-98.6,120.1-99.9c1,0,1.9,0.1,2.9,0.1
				s2,0,2.9-0.1c14.2,0.3,28,3,41.2,7.9c5.9,2.2,12.5-0.8,14.7-6.7s-0.8-12.5-6.7-14.7c-1.9-0.7-3.8-1.4-5.7-2
				c18.9-14.2,31.1-36.7,31.1-62.1c0-42.8-34.8-77.6-77.6-77.6s-77.6,34.8-77.6,77.6c0,25.4,12.3,48,31.2,62.2
				c-17.3,5.7-33.6,14.6-47.8,26.3c-26.1,21.5-44.3,51.4-51.1,84.3c-2.1,10.3,0.4,20.9,7.1,29.1c6.6,8.1,16.4,12.8,26.8,12.8h40.4
				c6.3,0,11.4-5.1,11.4-11.4S418.1,636.3,411.8,636.3z M428.1,444.5c0-30.2,24.6-54.8,54.8-54.8s54.8,24.6,54.8,54.8
				c0,29.3-23.1,53.3-52.1,54.7c-0.9,0-1.8,0-2.7,0c-0.9,0-1.8,0-2.7,0C451.2,497.8,428.1,473.8,428.1,444.5z"/>
			<path d="M620.3,563.6c-4.9-10.9-15.9-18-28.1-18h-35.6c0,0,0,0-0.1,0c-12.8,0-24,7.6-28.6,19.3c-0.6,1.6-1.3,3.5-2.1,5.8h-74.7
				c-3.1,0-6,1.2-8.2,3.5l-19.6,20.2c-4.3,4.4-4.3,11.5,0,16l20,20.3c2.1,2.2,5.1,3.4,8.1,3.4h37.1c6.3,0,11.4-5.1,11.4-11.4
				s-5.1-11.4-11.4-11.4h-32.3l-8.8-9l8.5-8.7h78.5c5.3,0,9.8-3.6,11.1-8.7c0.9-3.8,2.1-7.4,3.8-11.8c1.1-2.9,3.9-4.7,7.3-4.7l0,0
				h35.6c3.2,0,6,1.7,7.3,4.5c3.1,6.9,6.7,17.5,6.8,29.1c0,11.7-3.6,22.6-6.7,29.6c-1.2,2.8-4,4.7-7.2,4.7l0,0h-36
				c-3.2,0-6.1-2-7.4-5.1c-1.3-3.2-2.5-6.9-3.5-11.3c-1.5-6.1-7.6-9.9-13.8-8.4c-6.1,1.5-9.9,7.6-8.4,13.8
				c1.3,5.5,2.8,10.3,4.6,14.7c4.8,11.6,15.9,19.2,28.4,19.2h36c0,0,0,0,0.1,0c12.2,0,23.2-7.2,28.1-18.4c3.9-9,8.6-23.1,8.6-38.8
				C629,586.3,624.2,572.4,620.3,563.6z"/>
			<circle cx="582.8" cy="602" r="11.4"/>
		</g>
	</g>
</g>
</svg>
