<?xml version="1.0" encoding="utf-8"?>
<!-- Generator: Adobe Illustrator 23.0.3, SVG Export Plug-In . SVG Version: 6.00 Build 0)  -->
<svg version="1.1" id="Layer_1" xmlns="http://www.w3.org/2000/svg" xmlns:xlink="http://www.w3.org/1999/xlink" x="0px" y="0px"
	 viewBox="0 0 100 100" style="enable-background:new 0 0 100 100;" xml:space="preserve">
<style type="text/css">
	.st0{fill:#6561AB;}
</style>
<g>
	<g>
		<path d="M-251.1,650c0,5.3,4.3,9.5,9.5,9.5H67.6c5.3,0,9.5-4.3,9.5-9.5V489.8h-328.3L-251.1,650L-251.1,650z M-16.1,543.7
			c0-2.5,2-4.6,4.6-4.6h44c2.5,0,4.6,2,4.6,4.6v10.8c0,2.5-2,4.6-4.6,4.6h-44c-2.5,0-4.6-2-4.6-4.6V543.7z M-211.1,543.4
			c0-2.4,1.9-4.3,4.3-4.3h14.4v-14.4c0-2.4,1.9-4.3,4.3-4.3h11.3c2.4,0,4.3,1.9,4.3,4.3v14.4h14.4c2.4,0,4.3,1.9,4.3,4.3v11.3
			c0,2.4-1.9,4.3-4.3,4.3h-14.4v14.4c0,2.4-1.9,4.3-4.3,4.3H-188c-2.4,0-4.3-1.9-4.3-4.3V559h-14.4c-2.4,0-4.3-1.9-4.3-4.3v-11.3
			H-211.1z"/>
		<path d="M88.1,480c4.9,0,8.9-4,8.9-8.9v-15c0-4.9-4-8.9-8.9-8.9H38.4v-16.7c0-4.9-4-8.9-8.9-8.9H-8.9c-4.9,0-8.9,4-8.9,8.9v16.7
			h-134.9v-16.7c0-4.9-4-8.9-8.9-8.9H-200c-4.9,0-8.9,4-8.9,8.9v16.7h-53.2c-4.9,0-8.9,4-8.9,8.9v15c0,4.9,4,8.9,8.9,8.9h11H77.1
			H88.1L88.1,480z"/>
	</g>
</g>
<g>
	<g>
		<g>
			<path d="M411.8,636.3h-40.4c-4.9,0-7.8-2.7-9.1-4.3c-2.3-2.8-3.2-6.4-2.4-10c11.8-57,62.1-98.6,120.1-99.9c1,0,1.9,0.1,2.9,0.1
				s2,0,2.9-0.1c14.2,0.3,28,3,41.2,7.9c5.9,2.2,12.5-0.8,14.7-6.7s-0.8-12.5-6.7-14.7c-1.9-0.7-3.8-1.4-5.7-2
				c18.9-14.2,31.1-36.7,31.1-62.1c0-42.8-34.8-77.6-77.6-77.6s-77.6,34.8-77.6,77.6c0,25.4,12.3,48,31.2,62.2
				c-17.3,5.7-33.6,14.6-47.8,26.3c-26.1,21.5-44.3,51.4-51.1,84.3c-2.1,10.3,0.4,20.9,7.1,29.1c6.6,8.1,16.4,12.8,26.8,12.8h40.4
				c6.3,0,11.4-5.1,11.4-11.4S418.1,636.3,411.8,636.3z M428.1,444.5c0-30.2,24.6-54.8,54.8-54.8s54.8,24.6,54.8,54.8
				c0,29.3-23.1,53.3-52.1,54.7c-0.9,0-1.8,0-2.7,0c-0.9,0-1.8,0-2.7,0C451.2,497.8,428.1,473.8,428.1,444.5z"/>
			<path d="M620.3,563.6c-4.9-10.9-15.9-18-28.1-18h-35.6c0,0,0,0-0.1,0c-12.8,0-24,7.6-28.6,19.3c-0.6,1.6-1.3,3.5-2.1,5.8h-74.7
				c-3.1,0-6,1.2-8.2,3.5l-19.6,20.2c-4.3,4.4-4.3,11.5,0,16l20,20.3c2.1,2.2,5.1,3.4,8.1,3.4h37.1c6.3,0,11.4-5.1,11.4-11.4
				s-5.1-11.4-11.4-11.4h-32.3l-8.8-9l8.5-8.7h78.5c5.3,0,9.8-3.6,11.1-8.7c0.9-3.8,2.1-7.4,3.8-11.8c1.1-2.9,3.9-4.7,7.3-4.7l0,0
				h35.6c3.2,0,6,1.7,7.3,4.5c3.1,6.9,6.7,17.5,6.8,29.1c0,11.7-3.6,22.6-6.7,29.6c-1.2,2.8-4,4.7-7.2,4.7l0,0h-36
				c-3.2,0-6.1-2-7.4-5.1c-1.3-3.2-2.5-6.9-3.5-11.3c-1.5-6.1-7.6-9.9-13.8-8.4c-6.1,1.5-9.9,7.6-8.4,13.8
				c1.3,5.5,2.8,10.3,4.6,14.7c4.8,11.6,15.9,19.2,28.4,19.2h36c0,0,0,0,0.1,0c12.2,0,23.2-7.2,28.1-18.4c3.9-9,8.6-23.1,8.6-38.8
				C629,586.3,624.2,572.4,620.3,563.6z"/>
			<circle cx="582.8" cy="602" r="11.4"/>
		</g>
	</g>
</g>
<g>
	<g>
		<path class="st0" d="M91.5,55.7l-1,0.1c-0.1,0-0.2-0.1-0.2-0.2c0-1.4-0.3-9.3-1.5-12.2c-0.1-0.3-0.3-0.4-0.6-0.5l-0.5-0.1
			c-0.1,0-0.3-0.1-0.3-0.2c-1-2.1-2.8-6.7-3.7-8.1c-0.1-0.1,1.7-1.1,1.7-3.6c0-0.3-0.2-0.4-0.5-0.4c-3.7,0.3-29.5,2.3-43.1,5.9l0,0
			l0,0c-0.2,0.3-7.9,9.1-10.6,12.3c-0.1,0.1-0.2,0.2-0.4,0.2c-0.7-0.1-1.4-0.1-1.8-0.3c-0.3-0.1-0.6-0.2-0.9-0.1
			c-6,1.1-17.4,2.2-18.6,6.5c0,0.1-0.1,0.3-0.2,0.4c-0.3,0.3-0.7,0.7-0.9,4.4c0,0.5-1.5,0.5-1.5,1.7c0,0.9,0.3,2.9,0.4,3.8
			c0,0.3,0.2,0.5,0.5,0.7l4.7,2.7c0.3,0.1,0.5,0.2,0.8,0.2h0.1c-0.4-5.3,3.5-9.9,8.8-10.3c5.3-0.4,9.9,3.5,10.4,8.8
			c0.1,0.7,0,1.3,0,2c0.1,0,0.1,0,0.2-0.1c1.7-0.6,3.4-2.6,3.9-3.1c0.1-0.1,0.2-0.2,0.4-0.2c2-0.2,18-1.5,21.3-1.8
			c0.1,0,0.3,0,0.4,0.1l3.9,1.4c0.3,0.1,0.6,0.1,0.8,0l1.7-0.5c0.1,0,0.3-0.1,0.4-0.1H66c0-0.2,0-0.3-0.1-0.5
			c-0.4-5.3,3.5-9.9,8.8-10.4c5.3-0.4,9.9,3.5,10.4,8.8c0,0.2,0,0.5,0,0.7c0.1,0,0.2,0,0.2-0.1c0.3-0.2,0.8-0.7,1.1-1.7
			c0-0.1,0.1-0.2,0.2-0.3c2.4-1.5,1.8,0.2,2.8-0.5c1.7-1.2,2.1-1.1,2.3-1.9C92.1,58.1,92.2,55.7,91.5,55.7z M8.4,64.1
			c-0.5,0-0.7-2.7-0.2-2.7s1.2,0.5,1.2,1.3C9.4,63.4,8.9,64.1,8.4,64.1z M13.9,56.1l-0.4,1.3c-0.2,0.7-0.8,1.2-1.4,1.4l-1.8,0.5
			c-0.5,0.2-1-0.2-1-0.8c0.1-0.7,0.2-1.5,0.4-2.3c0.2-0.7,0.9-1,1.6-1.1l1.9-0.1C13.7,55.1,14.1,55.6,13.9,56.1z M59.7,50.2
			c-0.2,0.1-0.5,0.1-1.3,0.2h-0.5c-0.2,0-0.5,0-0.8,0.1c-2.2,0.2-2.8,0.2-2.9,0c-0.1-0.1,0-0.2,0-0.4c0.2-0.4,1.3-0.9,2.8-1.1
			c0.7-0.1,2.8-0.2,2.9,0.6C59.9,49.9,59.9,50.1,59.7,50.2z M60,44.4c0.1,1.4-0.9,2.5-2.3,2.7l-20.1,1.8c-0.9,0.1-1.5-1-0.9-1.7
			l5.7-6.9c1-1.2,2.4-2,4-2.3L57,36.2c1.3-0.2,2.5,0.7,2.6,2.1L60,44.4z M79.2,42.2l-10.1,3c-1.3,0.4-2.7-0.3-3.3-1.6l-2.3-5.7
			c-0.4-1.1,0.3-2.4,1.5-2.4l11-0.8c1.5-0.1,2.8,0.7,3.4,2.1l1.1,2.5C81.1,40.5,80.4,41.9,79.2,42.2z M87.6,52.3l-2.5,0.3
			c-0.2,0-0.5-0.2-0.5-0.4l-0.3-3.5c0-0.3,0-0.6,0.2-0.8l1.2-1.9c0.1-0.2,0.4-0.3,0.6-0.3s0.5,0.1,0.6,0.4l0.4,1
			c0.1,0.3,0.2,0.6,0.2,0.9l0.4,3.9C88,52.1,87.9,52.3,87.6,52.3z"/>
		<path class="st0" d="M55,66.3H39.1c-1.2,0-2.3,0.4-3.2,1l-2.7,1.9h27.7l-2.7-1.9C57.3,66.6,56.1,66.3,55,66.3z"/>
		<path class="st0" d="M21.4,59.3c-4.3,0-7.7,3.4-7.7,7.7c0,0.1,0,0.1,0,0.2c0,0.4,0.1,0.8,0.1,1.2c0.1,0.4,0.2,0.8,0.3,1.2
			c1.4,1.5,3.4,3,5.8,2.8c0.3,0,0.6,0,0.8,0c0.3,0,0.6,0,0.8,0.1c0.3,0.1,0.6,0.1,0.9,0.2c0.7-0.2,1.4-0.1,2.1-0.1
			c0.4,0,0.7,0.1,1.1,0.1c4,0.2,5.3-4.8,3.6-7.8c-0.4-0.9-0.9-1.7-1.5-2.3c-0.3-0.4-0.6-0.7-0.9-1s-0.6-0.6-1-0.8
			c-0.3-0.2-0.7-0.4-1-0.6C23.9,59.6,22.7,59.3,21.4,59.3z M26.6,68.4c-0.2,0.2-0.5,0.4-0.7,0.6s-0.5,0.3-0.7,0.4
			c-0.5,0.2-1,0.4-1.5,0.6c-0.4,0.1-0.8,0.2-1.2,0.2c-0.3,0-0.6,0-0.9,0s-0.6,0-0.9-0.1c-0.4-0.1-0.8-0.1-1.2-0.3
			c-1.9-0.4-2.7-2.3-2.2-4c0.1-0.4,0.3-0.7,0.4-1.1c0.8-1.3,2.2-2.2,3.8-2.2c0.9,0,1.8,0.3,2.5,0.8c0.2,0.2,0.5,0.3,0.7,0.5
			c0.3,0.5,0.8,1,1.2,1.5c0.2,0.3,0.4,0.5,0.5,0.8s0.2,0.6,0.3,0.9C26.7,67.6,26.7,68,26.6,68.4z"/>
		<path class="st0" d="M74.3,57.9c-4.3,0-7.7,3.4-7.7,7.7c0,0.2,0,0.3,0,0.5c0.3,4,3.6,7.2,7.7,7.2c4,0,7.3-3.1,7.7-7.1
			c0-0.2,0-0.4,0-0.7C82,61.4,78.6,57.9,74.3,57.9z M78.7,66.3c-0.3,2.1-2.1,3.8-4.4,3.8s-4.1-1.7-4.4-3.9c0-0.2,0-0.3,0-0.5
			c0-2.4,2-4.4,4.4-4.4s4.4,2,4.4,4.4C78.7,65.8,78.7,66.1,78.7,66.3z"/>
	</g>
	<g id="LGCjfE.tif_1_">
		<g>
			<path class="st0" d="M15.3,30.3c0.6,0.9,0.3,1.8-0.2,2.6s-1.1,1.6-1.7,2.3c-0.6,0.7-0.8,1.5-0.9,2.3c-0.3,2.4,0.2,4.5,1.7,6.4
				c0.6,0.8,1.3,1.2,2.4,1.2c2.9-0.1,5.9,0,8.8,0c0.3,0,0.5-0.1,0.7-0.3c1.9-1.8,2.7-4,2.6-6.7c-0.1-1.4-0.7-2.6-1.6-3.7
				c-0.4-0.5-0.7-1-1.1-1.4c-0.5-0.7-0.6-1.4-0.5-2.2c0-0.2,0.2-0.3,0.3-0.5c0.5,0,0.9,0,1.4,0c0.1,0.2,0.3,0.3,0.3,0.5
				c0.1,0.3,0.1,0.6,0.1,0.9c0,0.8,0.3,1.6,0.8,2.3c1,1.4,1.6,2.9,1.6,4.6c0.1,1.4-0.2,2.8-0.8,4c-0.6,1.3-1.4,2.4-1.7,3.9
				c0,0.2-0.1,0.4-0.3,0.6c-0.1,0.1-0.3,0.1-0.4,0.1c-0.5,0-1,0.1-1.5,0.1c0-0.1,0-1,0-1c-0.4,0-0.8,0-1.2,0c0,0.4-0.1,0.7-0.1,1
				c-0.5,0-0.9,0-1.4,0c0-0.3,0-0.7,0-1c-0.5,0-0.9,0-1.3,0c0,0.4,0,0.7,0,1c-0.5,0-1,0-1.5,0c0-0.3,0-0.7,0-1c-0.5,0-0.9,0-1.3,0
				c0,0.4,0,0.7,0,1c-0.5,0-0.9,0-1.4,0c0-0.3-0.1-0.7-0.1-1c-0.4,0-0.8,0-1.2,0c0,0.4,0,0.7,0,1c-0.5,0-1.6,0-1.9-0.3
				c-0.1-0.1-0.1-0.2-0.2-0.4c-0.4-1.2-0.9-2.2-1.4-3.2s-0.9-2.1-1.1-3.2c-0.1-1.1-0.1-2.2,0.2-3.2c0.1-0.5,0.3-1,0.6-1.5
				c0.2-0.3,0.9-1.2,0.9-1.5c0.5-0.6,0.7-1.3,0.7-2.1c0-0.5,0-1,0.4-1.4C14.4,30.3,14.9,30.3,15.3,30.3z"/>
			<path class="st0" d="M21.7,35.7c0,0.9,0,1.9,0,2.8c0,0.8-0.5,1.3-1.2,1.3s-1.2-0.5-1.2-1.3c0-1.9,0-3.8,0-5.8
				c0-0.8,0.5-1.3,1.2-1.3s1.2,0.5,1.2,1.3C21.7,33.8,21.7,34.8,21.7,35.7z"/>
			<path class="st0" d="M21.7,42.6c0,0.6-0.5,1.2-1.2,1.2c-0.6,0-1.2-0.5-1.2-1.2c0-0.6,0.5-1.2,1.2-1.2
				C21.2,41.4,21.7,41.9,21.7,42.6z"/>
		</g>
	</g>
</g>
</svg>
