<?xml version="1.0" encoding="utf-8"?>
<!-- Generator: Adobe Illustrator 23.0.2, SVG Export Plug-In . SVG Version: 6.00 Build 0)  -->
<svg version="1.1" id="Layer_1" xmlns="http://www.w3.org/2000/svg" xmlns:xlink="http://www.w3.org/1999/xlink" x="0px" y="0px"
	 viewBox="0 0 100 100" style="enable-background:new 0 0 100 100;" xml:space="preserve">
<style type="text/css">
	.st0{fill:none;}
	.st1{fill:#FDBC18;}
</style>
<g>
	<polygon class="st0" points="9.4,51.5 9.4,51.5 13.5,45.3 19.8,45.3 19.8,45.3 13.5,45.3 	"/>
	<ellipse class="st0" cx="65.2" cy="54.1" rx="1.5" ry="1.5"/>
	<ellipse class="st0" cx="84.4" cy="64.5" rx="1.5" ry="1.5"/>
	<polygon class="st0" points="77.7,49.9 72.3,50.2 79.9,54.3 81.7,52 	"/>
	<path class="st0" d="M13.5,59.7c-0.7,0-1.3,0.6-1.3,1.3c0,0.1,0,0.1,0,0.2c0.1,0.6,0.6,1.1,1.3,1.1s1.2-0.5,1.3-1.1
		c0-0.1,0-0.1,0-0.2C14.8,60.2,14.2,59.7,13.5,59.7z"/>
	<polygon class="st0" points="82.4,52.4 80.6,54.8 84.6,56.9 85.9,54.4 	"/>
	<polygon class="st0" points="86.6,54.7 85.2,57.3 88.1,58.8 87.7,55.3 	"/>
	<path class="st0" d="M33,59.7c-0.7,0-1.3,0.6-1.3,1.3l0,0c0,0.7,0.6,1.3,1.3,1.3s1.3-0.6,1.3-1.3c0,0,0,0,0-0.1
		C34.3,60.2,33.7,59.7,33,59.7z"/>
	<path class="st0" d="M43.9,59.7c-0.7,0-1.2,0.5-1.3,1.1c0,0.1,0,0.1,0,0.2c0,0.7,0.6,1.3,1.3,1.3s1.3-0.6,1.3-1.3
		c0-0.1,0-0.1,0-0.2C45.1,60.1,44.6,59.7,43.9,59.7z"/>
	<path class="st1" d="M92.2,61.1L89,59.3l0.1,0.6L88.2,60l-0.1-1.1l-2.8-1.5L85,57.6l-0.7-0.4l0.2-0.4l-3.9-2.1l-0.6,1l-0.7-0.5
		l0.6-0.8l-7.6-4.1l-1.4,0.1v-0.8l-9.2-2.4c-0.5-0.1-0.9,0.1-1.2,0.5l-0.8,1.4c-0.3-0.1-0.6,0.1-0.7,0.4l-0.2,1.1
		c-0.1,0.6,0.2,1.2,0.7,1.5l2,1.1c0.1-0.3,0.2-0.6,0.3-0.9c1.1-2,3.6-2.6,5.5-1.3c1.1,0.8,1.7,2.1,1.6,3.4c-0.1,1-0.5,1.7-1,2.3
		l12.8,7c0.1-0.3,0.2-0.6,0.3-0.9c1.1-2,3.6-2.6,5.5-1.3c1.1,0.8,1.7,2.1,1.6,3.4c-0.1,1-0.5,1.7-1,2.3l1.1,0.6l2.2-0.8
		c0.5-0.2,0.9-0.5,1.2-1l0.9-1.7c0.1-0.2,0.2-0.4,0.2-0.6l0.2-1C93.1,62,92.8,61.4,92.2,61.1z M92.2,61.8L92.2,61.8L92.2,61.8
		L92.2,61.8z"/>
	<path class="st1" d="M85.8,62.1c-1.3-0.7-3-0.2-3.8,1.1c-0.7,1.3-0.2,3,1.1,3.8c1.3,0.7,3,0.2,3.8-1.1
		C87.6,64.5,87.1,62.8,85.8,62.1z M85.7,65.2c-0.4,0.7-1.3,1-2,0.6s-1-1.3-0.6-2c0.4-0.7,1.3-1,2-0.6C85.9,63.6,86.1,64.5,85.7,65.2
		z"/>
	<path class="st1" d="M66.5,51.6c-1.3-0.7-3-0.2-3.8,1.1c-0.7,1.3-0.2,3,1.1,3.8c1.3,0.7,3,0.2,3.8-1.1S67.9,52.4,66.5,51.6z
		 M66.5,54.8c-0.4,0.7-1.3,1-2,0.6s-1-1.3-0.6-2s1.3-1,2-0.6C66.6,53.1,66.9,54.1,66.5,54.8z"/>
	<polygon points="92.2,61.8 92.2,61.8 92.2,61.7 	"/>
	<path class="st1" d="M72.3,50.2l5.4-0.3l3.9,2.1l-1.8,2.3l0.8,0.4l1.8-2.3l3.5,1.9l0.1-0.1l0.7,0.4l-0.1,0.1l1.1,0.6l0.3,3.5
		l0.9,0.5L88.8,57l-0.2-1.5c0-0.4-0.3-0.8-0.7-1l-9.4-5.1c-0.4-0.2-0.8-0.3-1.3-0.3l-6.4,0.4v0.1l0.3,0.1L72.3,50.2z"/>
	<polygon class="st1" points="88.2,59.9 89,59.8 89,59.3 88.1,58.8 	"/>
	<polygon class="st1" points="72.3,50.2 71.2,49.6 70.9,49.5 70.9,50.3 	"/>
	<polygon class="st1" points="79.2,55.2 80,55.7 80.6,54.6 79.7,54.2 	"/>
	<rect x="84.1" y="55.4" transform="matrix(0.4784 -0.8782 0.8782 0.4784 -4.393 104.2694)" class="st1" width="2.9" height="0.8"/>
	<rect x="84.6" y="56.9" transform="matrix(0.4784 -0.8782 0.8782 0.4784 -6.037 104.3798)" class="st1" width="0.4" height="0.8"/>
	
		<rect x="86.2" y="54.1" transform="matrix(0.4784 -0.8782 0.8782 0.4784 -2.8157 104.2452)" class="st1" width="0.2" height="0.8"/>
	<path class="st1" d="M13.5,56.8c-2.3,0-4.2,1.9-4.2,4.2c0,0.1,0,0.2,0,0.2c0.1,2.2,1.9,3.9,4.2,3.9s4.1-1.8,4.2-4V61
		C17.7,58.6,15.8,56.8,13.5,56.8z M14.8,61.1c-0.1,0.6-0.6,1.1-1.3,1.1c-0.6,0-1.2-0.5-1.3-1.1c0-0.1,0-0.1,0-0.2
		c0-0.7,0.6-1.3,1.3-1.3s1.3,0.6,1.3,1.3C14.8,61,14.8,61.1,14.8,61.1z"/>
	<path class="st1" d="M33,56.8c-2.3,0-4.2,1.9-4.2,4.2l0,0c0,2.3,1.9,4.2,4.2,4.2s4.2-1.9,4.2-4.2v-0.1C37.2,58.6,35.3,56.8,33,56.8
		z M33,62.2c-0.7,0-1.3-0.6-1.3-1.3l0,0c0-0.7,0.6-1.3,1.3-1.3s1.3,0.5,1.3,1.2c0,0,0,0,0,0.1C34.3,61.7,33.8,62.2,33,62.2z"/>
	<path class="st1" d="M43.9,56.8c-2.3,0-4.1,1.8-4.2,4.1V61c0,2.3,1.9,4.2,4.2,4.2s4.2-1.9,4.2-4.2c0-0.1,0-0.1,0-0.2
		C48,58.5,46.1,56.8,43.9,56.8z M43.9,62.2c-0.7,0-1.3-0.6-1.3-1.3c0-0.1,0-0.1,0-0.2c0.1-0.6,0.6-1.1,1.3-1.1
		c0.6,0,1.2,0.5,1.3,1.1c0,0.1,0,0.1,0,0.2C45.2,61.7,44.6,62.2,43.9,62.2z"/>
	<path class="st1" d="M50.4,54.1L50.4,54.1H22.5V41.8H12.2L6,51.5v9.7h2.4c0-0.1,0-0.2,0-0.2c0-2.8,2.3-5.1,5.1-5.1s5.1,2.3,5.1,5.1
		v0.1l9.2-0.1l0,0c0-2.8,2.3-5.1,5.1-5.1s5.1,2.3,5.1,5h0.6c0.1-2.8,2.3-5,5.1-5s5,2.2,5.1,4.9h1.4l-2.4-6.6L50.4,54.1z M19.8,45.3
		v6.2l0,0H9.4l0,0l0,0l4.1-6.2H19.8L19.8,45.3z"/>
	<polygon points="9.4,51.5 19.8,51.5 19.8,51.5 	"/>
	<polygon class="st1" points="50.4,60.7 54.6,54.2 50.4,54.1 	"/>
	<polygon class="st1" points="48.1,54.1 50.4,60.7 50.4,54.1 	"/>
	<polygon class="st1" points="54.6,32.9 51.3,32.9 24,49.2 24,52.5 54.6,52.5 54.6,48.4 37.8,48.4 53.3,34.1 53.2,33.9 	"/>
	<polygon class="st1" points="55.7,37.6 56,37.9 54.6,32.9 53.3,34.1 54.5,38.1 54.5,38.1 	"/>
	<polygon class="st1" points="53.2,33.9 53.3,34.1 54.6,32.9 	"/>
	<path class="st1" d="M59.7,45.9c0.2-0.9-0.1-1.8-0.1-1.8s-0.8,0.2-0.9,0.7c0,0,0.3,0.9-0.7,1.2c-0.9,0.3-1.5-0.7-1.1-1.2
		c0.4-0.6,1-0.6,0.8-1.2C57.5,43,57,41.7,57,41.7l0.9-1.5l-0.4-1.1l-1.2,0.4l0.2,0.7l-1.3,0.5L55.1,40l-1.4,0.5l0.4,1.1l1.9,0.5
		l0.6,1.6c0,0-1.4,0.7-0.8,2.3c0.6,1.6,2.3,1.4,2.5,1.3C58.3,47.3,59.5,46.9,59.7,45.9z"/>
	<polygon class="st1" points="55.2,41 56.6,40.4 56.4,39.6 54.8,40.1 	"/>
	<polygon class="st1" points="54.5,38.1 53.7,40.6 55.1,40 	"/>
	<polygon class="st1" points="57.6,39.1 56,37.9 56.4,39.6 	"/>
	<polygon class="st1" points="56.4,39.6 56,37.9 55.7,37.6 54.5,38.1 54.5,38.1 55.1,40 	"/>
</g>
<g>
	<g>
		<path d="M-251.1,650c0,5.3,4.3,9.5,9.5,9.5H67.6c5.3,0,9.5-4.3,9.5-9.5V489.8h-328.3L-251.1,650L-251.1,650z M-16.1,543.7
			c0-2.5,2-4.6,4.6-4.6h44c2.5,0,4.6,2,4.6,4.6v10.8c0,2.5-2,4.6-4.6,4.6h-44c-2.5,0-4.6-2-4.6-4.6V543.7z M-211.1,543.4
			c0-2.4,1.9-4.3,4.3-4.3h14.4v-14.4c0-2.4,1.9-4.3,4.3-4.3h11.3c2.4,0,4.3,1.9,4.3,4.3v14.4h14.4c2.4,0,4.3,1.9,4.3,4.3v11.3
			c0,2.4-1.9,4.3-4.3,4.3h-14.4v14.4c0,2.4-1.9,4.3-4.3,4.3H-188c-2.4,0-4.3-1.9-4.3-4.3V559h-14.4c-2.4,0-4.3-1.9-4.3-4.3v-11.3
			H-211.1z"/>
		<path d="M88.1,480c4.9,0,8.9-4,8.9-8.9v-15c0-4.9-4-8.9-8.9-8.9H38.4v-16.7c0-4.9-4-8.9-8.9-8.9H-8.9c-4.9,0-8.9,4-8.9,8.9v16.7
			h-134.9v-16.7c0-4.9-4-8.9-8.9-8.9H-200c-4.9,0-8.9,4-8.9,8.9v16.7h-53.2c-4.9,0-8.9,4-8.9,8.9v15c0,4.9,4,8.9,8.9,8.9h11H77.1
			H88.1L88.1,480z"/>
	</g>
</g>
<g>
	<g>
		<g>
			<path d="M411.8,636.3h-40.4c-4.9,0-7.8-2.7-9.1-4.3c-2.3-2.8-3.2-6.4-2.4-10c11.8-57,62.1-98.6,120.1-99.9c1,0,1.9,0.1,2.9,0.1
				s2,0,2.9-0.1c14.2,0.3,28,3,41.2,7.9c5.9,2.2,12.5-0.8,14.7-6.7s-0.8-12.5-6.7-14.7c-1.9-0.7-3.8-1.4-5.7-2
				c18.9-14.2,31.1-36.7,31.1-62.1c0-42.8-34.8-77.6-77.6-77.6s-77.6,34.8-77.6,77.6c0,25.4,12.3,48,31.2,62.2
				c-17.3,5.7-33.6,14.6-47.8,26.3c-26.1,21.5-44.3,51.4-51.1,84.3c-2.1,10.3,0.4,20.9,7.1,29.1c6.6,8.1,16.4,12.8,26.8,12.8h40.4
				c6.3,0,11.4-5.1,11.4-11.4S418.1,636.3,411.8,636.3z M428.1,444.5c0-30.2,24.6-54.8,54.8-54.8s54.8,24.6,54.8,54.8
				c0,29.3-23.1,53.3-52.1,54.7c-0.9,0-1.8,0-2.7,0c-0.9,0-1.8,0-2.7,0C451.2,497.8,428.1,473.8,428.1,444.5z"/>
			<path d="M620.3,563.6c-4.9-10.9-15.9-18-28.1-18h-35.6c0,0,0,0-0.1,0c-12.8,0-24,7.6-28.6,19.3c-0.6,1.6-1.3,3.5-2.1,5.8h-74.7
				c-3.1,0-6,1.2-8.2,3.5l-19.6,20.2c-4.3,4.4-4.3,11.5,0,16l20,20.3c2.1,2.2,5.1,3.4,8.1,3.4h37.1c6.3,0,11.4-5.1,11.4-11.4
				s-5.1-11.4-11.4-11.4h-32.3l-8.8-9l8.5-8.7h78.5c5.3,0,9.8-3.6,11.1-8.7c0.9-3.8,2.1-7.4,3.8-11.8c1.1-2.9,3.9-4.7,7.3-4.7l0,0
				h35.6c3.2,0,6,1.7,7.3,4.5c3.1,6.9,6.7,17.5,6.8,29.1c0,11.7-3.6,22.6-6.7,29.6c-1.2,2.8-4,4.7-7.2,4.7l0,0h-36
				c-3.2,0-6.1-2-7.4-5.1c-1.3-3.2-2.5-6.9-3.5-11.3c-1.5-6.1-7.6-9.9-13.8-8.4c-6.1,1.5-9.9,7.6-8.4,13.8
				c1.3,5.5,2.8,10.3,4.6,14.7c4.8,11.6,15.9,19.2,28.4,19.2h36c0,0,0,0,0.1,0c12.2,0,23.2-7.2,28.1-18.4c3.9-9,8.6-23.1,8.6-38.8
				C629,586.3,624.2,572.4,620.3,563.6z"/>
			<circle cx="582.8" cy="602" r="11.4"/>
		</g>
	</g>
</g>
</svg>
